<?xml version='1.0' encoding='ASCII' standalone='yes'?>
<svg xmlns="http://www.w3.org/2000/svg" xmlns:xlink="http://www.w3.org/1999/xlink" version="1.1" width="1920.0px" viewBox="0 0 1920.0 1080.0" height="1080.0px">
  <g>
    <g>
      <defs/>
      <rect fill="#092146" height="1080px" width="1920px" x="0" y="0"/>
    </g>
    <g transform="translate(845.25, 505.5) scale(1 1)"><g>
    <g transform="translate(0, 0) scale(1.5 1.5)"><title>bbva/logo/bbva_secundario    </title>
    <g id="bbva/logo/bbva_secundario----" stroke="none" stroke-width="1" fill="none" fill-rule="evenodd">
        
    </g>
</g>
  </g>
</g>
    <g transform="translate(180.0, -240.0) scale(1 1)"><g>
    <g transform="translate(0, 0) scale(13 13)" opacity="0.1"><title>bbva/icon/bbva_blanco    </title>
    <g id="bbva/icon/bbva_blanco----" stroke="none" stroke-width="1" fill="none" fill-rule="evenodd">
        <path d="M31.0121437,101.154544 L58.5840033,49.2646825 C59.1717755,48.1550215 60.8816583,48.1550215 61.4694305,49.2646825 L89.0412901,101.154544 C89.3084593,101.682954 89.8427977,102 90.4305699,102 L103.789029,102 C104.697404,102 105.285176,101.048862 104.857706,100.256247 L61.4159967,19.8322457 C60.8282245,18.7225848 59.2252094,18.7225848 58.5840033,19.8322457 L15.1422943,100.256247 C14.7148236,101.048862 15.3025958,102 16.210971,102 L29.5694301,102 C30.1572023,101.947159 30.7449745,101.630113 31.0121437,101.154544 L31.0121437,101.154544 Z" id="Path" fill="#FFFFFF"/>
    </g>
</g>
  </g>
</g>
  </g>
</svg>
